<svg version="1.1" xmlns="http://www.w3.org/2000/svg" xmlns:xlink="http://www.w3.org/1999/xlink" width="48" height="48"><defs><linearGradient x1="14.17166" y1="13.76469" x2="55.04155" y2="55.44852" gradientUnits="userSpaceOnUse" id="color-1"><stop offset="0" stop-color="#000000" stop-opacity="0.32"></stop><stop offset="1" stop-color="#000000" stop-opacity="0"></stop></linearGradient><filter id="dropshadow-base"><feColorMatrix type="matrix" values="0 0 0 0 0  0 0 0 0 0  0 0 0 0 0  0 0 0 .8 0"></feColorMatrix> <feOffset dx="0" dy="1"></feOffset> <feGaussianBlur stdDeviation="1"></feGaussianBlur> <feComposite in="SourceGraphic"></feComposite></filter><filter id="dropshadow-banner" x="-10%" y="-10%" width="120%" height="130%"><feColorMatrix type="matrix" values="0 0 0 0 0  0 0 0 0 0  0 0 0 0 0  0 0 0 .4 0"></feColorMatrix> <feOffset dx="0" dy="1"></feOffset> <feGaussianBlur stdDeviation="0.5"></feGaussianBlur> <feComposite in="SourceGraphic"></feComposite></filter></defs><g fill="none" fill-rule="nonzero" stroke="none" stroke-width="none" stroke-linecap="butt" stroke-linejoin="miter" stroke-miterlimit="10" stroke-dasharray="" stroke-dashoffset="0" font-family="none" font-weight="none" font-size="none" text-anchor="none" style="mix-blend-mode: normal"><path d="M2,24c0,-12.15026 9.84974,-22 22,-22c12.15026,0 22,9.84974 22,22c0,12.15026 -9.84974,22 -22,22c-12.15026,0 -22,-9.84974 -22,-22z" id="base 1 17" fill="#2997d8" stroke-width="1"></path><path d="M23.91958,13.76469h1.94958l5.06565,5.06565l0.10563,-0.1917l1.07714,-1.94958h0.00487l1.70589,0.93581l11.55773,11.55773c-1.55326,6.43244 -5.93313,11.76221 -11.75129,14.601l-14.9931,-14.9931c-0.35275,-0.35275 -0.57086,-0.84015 -0.57086,-1.37872c0,-0.34118 0.08773,-0.65799 0.23882,-0.94068l1.32085,-2.38824l-1.74802,-3.68299l-3.71081,-3.71081v-1.94958h3.18269l3.64086,3.64086v-1.69126h2.92437z" fill="url(#color-1)" stroke-width="1"></path><path d="M23.91958,21.56302h1.94958v-2.92438h2.92438v-1.94958h-2.92438v-2.92438h-1.94958v2.92438h-2.92438v1.94958h2.92438zM20.02041,30.33615c-1.07715,0 -1.93984,0.87244 -1.93984,1.94958c0,1.07715 0.86269,1.94958 1.93984,1.94958c1.07715,0 1.94958,-0.87244 1.94958,-1.94958c0,-1.07715 -0.87244,-1.94958 -1.94958,-1.94958zM29.76833,30.33615c-1.07715,0 -1.93984,0.87244 -1.93984,1.94958c0,1.07715 0.86269,1.94958 1.93984,1.94958c1.07715,0 1.94958,-0.87244 1.94958,-1.94958c0,-1.07715 -0.87244,-1.94958 -1.94958,-1.94958zM20.191,27.16808c0,-0.04387 0.00975,-0.08286 0.02924,-0.11698l0.87731,-1.58891h7.2622c0.73109,0 1.36958,-0.40454 1.70589,-1.00404l3.7627,-6.8333l-1.70589,-0.9358h-0.00487l-1.07715,1.94958l-2.68555,4.87396h-6.83817l-0.12672,-0.26319l-2.18841,-4.61077l-0.92605,-1.94958l-0.92118,-1.94958h-3.1827v1.94958h1.94958l3.50925,7.3938l-1.32084,2.38824c-0.15109,0.28269 -0.23882,0.5995 -0.23882,0.94067c0,1.07715 0.87244,1.94958 1.94958,1.94958h11.69751v-1.94958h-11.28322c-0.13647,0 -0.2437,-0.10723 -0.2437,-0.2437z" fill="none" stroke-width="0"></path><path d="M23.91958,18.63864h-2.92438v-1.94958h2.92438v-2.92438h1.94958v2.92438h2.92438v1.94958h-2.92438v2.92438h-1.94958zM21.96999,32.28574c0,1.07715 -0.87244,1.94958 -1.94958,1.94958c-1.07715,0 -1.93984,-0.87244 -1.93984,-1.94958c0,-1.07715 0.86269,-1.94958 1.93984,-1.94958c1.07715,0 1.94958,0.87244 1.94958,1.94958zM31.71792,32.28574c0,1.07715 -0.87244,1.94958 -1.94958,1.94958c-1.07715,0 -1.93984,-0.87244 -1.93984,-1.94958c0,-1.07715 0.86269,-1.94958 1.93984,-1.94958c1.07715,0 1.94958,0.87244 1.94958,1.94958zM20.4347,27.41177h11.28322v1.94958h-11.69751c-1.07715,0 -1.94958,-0.87244 -1.94958,-1.94958c0,-0.34118 0.08773,-0.65798 0.23882,-0.94067l1.32084,-2.38824l-3.50925,-7.3938h-1.94958v-1.94958h3.1827l0.92118,1.94958l0.92605,1.94958l2.18841,4.61077l0.12672,0.26319h6.83817l2.68555,-4.87396l1.07715,-1.94958h0.00487l1.70589,0.9358l-3.7627,6.8333c-0.3363,0.5995 -0.97479,1.00404 -1.70589,1.00404h-7.2622l-0.87731,1.58891c-0.0195,0.03412 -0.02924,0.07311 -0.02924,0.11698c0,0.13647 0.10723,0.2437 0.2437,0.2437z" fill="#ffffff" stroke-width="0"></path><path d="M2,24c0,-12.15026 9.84974,-22 22,-22c12.15026,0 22,9.84974 22,22c0,12.15026 -9.84974,22 -22,22c-12.15026,0 -22,-9.84974 -22,-22z" id="base 1 13 1" fill="none" stroke-width="1"></path><path d="M2,24c0,-12.15026 9.84974,-22 22,-22c12.15026,0 22,9.84974 22,22c0,12.15026 -9.84974,22 -22,22c-12.15026,0 -22,-9.84974 -22,-22z" id="base 1 9 1" fill="none" stroke-width="1"></path><path d="M2,24c0,-12.15026 9.84974,-22 22,-22c12.15026,0 22,9.84974 22,22c0,12.15026 -9.84974,22 -22,22c-12.15026,0 -22,-9.84974 -22,-22z" id="base 1 5 1" fill="none" stroke-width="1"></path><path d="M2,24c0,-12.15026 9.84974,-22 22,-22c12.15026,0 22,9.84974 22,22c0,12.15026 -9.84974,22 -22,22c-12.15026,0 -22,-9.84974 -22,-22z" id="base 1 1 1" fill="none" stroke-width="1"></path><g fill="#000000" stroke-width="1" font-family="Roboto, sans-serif" font-weight="400" font-size="14" text-anchor="start"></g><rect x="2" y="2" width="44" height="22" fill="none" stroke-width="1"></rect><path d="M2,24v-22h44v22z" fill="none" stroke-width="1"></path><path d="M2,24v-22h44v22z" fill="none" stroke-width="1"></path><path d="M2,24v-22h44v22z" fill="none" stroke-width="1"></path><path d="M2,24v-22h44v22z" fill="none" stroke-width="1"></path><g fill="#000000" stroke-width="1" font-family="Roboto, sans-serif" font-weight="400" font-size="14" text-anchor="start"></g><rect x="2" y="2" width="44" height="22" fill="none" stroke-width="1"></rect><path d="M2,24v-22h44v22z" fill="none" stroke-width="1"></path><path d="M2,24v-22h44v22z" fill="none" stroke-width="1"></path><path d="M2,24v-22h44v22z" fill="none" stroke-width="1"></path><path d="M2,24v-22h44v22z" fill="none" stroke-width="1"></path><g fill="#000000" stroke-width="1" font-family="Roboto, sans-serif" font-weight="400" font-size="14" text-anchor="start"></g><rect x="2" y="2" width="44" height="22" fill="none" stroke-width="1"></rect><path d="M2,24v-22h44v22z" fill="none" stroke-width="1"></path><path d="M2,24v-22h44v22z" fill="none" stroke-width="1"></path><path d="M2,24v-22h44v22z" fill="none" stroke-width="1"></path><path d="M2,24v-22h44v22z" fill="none" stroke-width="1"></path><g fill="#000000" stroke-width="1" font-family="Roboto, sans-serif" font-weight="400" font-size="14" text-anchor="start"></g><rect x="2" y="2" width="44" height="22" fill="none" stroke-width="1"></rect><path d="M2,24v-22h44v22z" fill="none" stroke-width="1"></path><path d="M2,24v-22h44v22z" fill="none" stroke-width="1"></path><path d="M2,24v-22h44v22z" fill="none" stroke-width="1"></path><path d="M2,24v-22h44v22z" fill="none" stroke-width="1"></path></g></svg>